<?xml version="1.0" standalone="no"?>
<!DOCTYPE svg PUBLIC "-//W3C//DTD SVG 20010904//EN"
 "http://www.w3.org/TR/2001/REC-SVG-20010904/DTD/svg10.dtd">
<svg version="1.0" xmlns="http://www.w3.org/2000/svg"
 width="1656.000000pt" height="1656.000000pt" viewBox="0 0 1656.000000 1656.000000"
 preserveAspectRatio="xMidYMid meet">
<metadata>
Created by potrace 1.11, written by Peter Selinger 2001-2013
</metadata>
<g transform="translate(0.000000,1656.000000) scale(0.100000,-0.100000)"
fill="#000000" stroke="none">
<path d="M7769 11326 c-2 -2 -40 -6 -84 -10 -44 -3 -89 -8 -100 -10 -11 -2
-47 -7 -80 -11 -32 -3 -62 -8 -65 -10 -3 -2 -28 -6 -54 -9 -49 -6 -206 -39
-266 -56 -180 -49 -232 -65 -280 -80 -66 -22 -216 -80 -283 -109 -26 -11 -48
-20 -50 -20 -3 1 -222 -112 -292 -151 -69 -37 -345 -218 -360 -236 -5 -6 -28
-24 -50 -40 -158 -115 -389 -337 -555 -534 -25 -29 -51 -59 -57 -66 -7 -7 -13
-17 -13 -23 0 -6 -3 -11 -7 -11 -5 0 -19 -17 -33 -37 -14 -20 -34 -47 -45 -59
-11 -12 -38 -48 -60 -80 -22 -33 -43 -60 -47 -62 -5 -2 -8 -7 -8 -12 0 -5 -22
-41 -48 -82 -107 -161 -247 -432 -293 -563 -8 -22 -16 -42 -19 -45 -3 -3 -14
-32 -24 -65 -11 -33 -24 -66 -29 -72 -5 -7 -7 -13 -4 -13 3 0 -4 -28 -15 -62
-27 -87 -49 -167 -54 -203 -3 -16 -9 -43 -14 -60 -9 -31 -19 -89 -26 -140 -2
-16 -6 -46 -8 -65 -21 -138 -26 -212 -27 -380 -1 -130 10 -360 17 -372 3 -4 7
-34 9 -65 4 -52 11 -98 15 -98 1 0 3 -16 5 -35 5 -37 5 -37 29 -145 24 -108
85 -304 121 -390 25 -60 119 -259 125 -265 5 -5 23 -36 44 -75 20 -37 91 -140
98 -143 5 -2 8 -8 8 -14 0 -32 269 -329 415 -458 51 -45 196 -157 255 -197 76
-51 260 -162 260 -157 0 3 14 -4 30 -16 17 -12 36 -23 43 -24 7 -2 50 -21 97
-43 89 -41 289 -117 343 -129 4 -1 9 -3 12 -4 3 -1 8 -3 13 -4 4 -1 16 -5 27
-9 11 -3 31 -8 45 -11 14 -3 36 -8 50 -11 14 -3 36 -8 50 -11 14 -3 45 -10 69
-15 24 -5 63 -12 86 -15 24 -3 54 -7 66 -9 137 -27 691 -27 830 0 13 3 41 7
64 10 22 3 78 13 125 22 47 8 95 17 108 19 52 10 291 74 347 94 33 12 67 23
75 25 30 7 242 95 310 129 39 20 70 32 70 28 0 -4 4 -2 8 4 4 5 42 29 84 51
117 63 254 151 385 249 65 48 123 92 129 98 6 6 37 34 69 61 61 52 240 229
310 306 36 39 147 173 224 269 35 45 181 259 181 266 0 3 9 19 21 35 27 38 84
143 105 192 9 20 19 37 24 37 5 0 28 -58 35 -90 17 -82 190 -465 225 -500 3
-3 11 -17 19 -32 8 -16 18 -28 23 -28 4 0 8 -6 8 -13 0 -15 94 -146 180 -252
68 -82 210 -227 299 -305 35 -30 69 -60 75 -65 6 -6 45 -35 86 -65 41 -30 76
-58 78 -62 2 -5 8 -8 12 -8 5 0 38 -20 73 -44 102 -70 306 -178 437 -231 36
-14 74 -30 85 -35 32 -15 232 -79 320 -101 85 -22 102 -26 150 -34 17 -3 37
-8 45 -10 8 -2 33 -7 55 -10 22 -4 51 -9 65 -11 14 -3 44 -6 67 -8 23 -3 55
-7 70 -10 45 -10 199 -19 313 -18 97 0 139 3 275 17 28 2 77 7 110 10 172 17
250 29 385 60 8 2 35 8 60 14 169 38 426 123 600 198 166 71 200 87 200 95 0
5 7 8 15 8 20 0 304 158 325 180 3 3 30 21 60 40 48 30 86 56 127 90 7 6 16
10 22 10 5 0 11 4 13 8 2 4 23 23 48 42 24 19 50 40 56 45 6 6 35 30 65 55
116 98 277 256 381 375 23 27 51 57 61 67 9 10 17 21 17 24 0 4 8 14 18 23 9
9 37 43 62 76 25 33 47 62 50 65 5 5 14 18 81 115 28 41 82 127 139 225 30 50
118 230 113 230 -3 0 -1 6 5 13 21 25 120 289 137 363 2 10 11 44 20 74 9 30
18 69 21 85 3 17 10 48 16 70 6 22 11 49 13 60 2 11 7 49 13 85 27 162 35 279
35 490 0 219 -10 386 -29 495 -3 17 -7 44 -8 60 -2 17 -9 57 -16 90 -7 33 -14
67 -15 75 -2 18 -18 77 -46 175 -27 95 -97 278 -131 345 -15 30 -28 60 -28 67
0 7 -3 13 -8 13 -4 0 -14 15 -21 33 -19 42 -163 271 -181 287 -4 3 -13 14 -21
26 -58 84 -318 354 -414 430 -27 21 -52 42 -55 45 -3 3 -50 38 -105 77 -55 40
-105 75 -111 79 -21 16 -50 33 -64 40 -8 4 -17 9 -20 12 -5 6 -15 12 -99 57
-134 73 -156 84 -168 84 -7 0 -13 5 -13 12 0 6 -3 8 -6 5 -4 -3 -16 -1 -28 5
-11 7 -23 13 -26 13 -3 0 -21 8 -40 18 -33 15 -224 80 -315 106 -65 18 -206
49 -260 56 -27 3 -59 8 -70 11 -76 17 -263 28 -450 28 -137 -1 -329 -9 -345
-15 -3 -1 -8 -1 -12 0 -4 0 -72 -9 -150 -20 -79 -12 -154 -23 -168 -24 -30 -4
-75 -13 -110 -21 -14 -3 -36 -8 -50 -10 -14 -3 -41 -9 -60 -14 -19 -5 -46 -11
-60 -14 -25 -5 -66 -15 -85 -20 -5 -2 -23 -6 -40 -10 -16 -4 -47 -14 -67 -22
-21 -8 -38 -12 -38 -10 0 7 -212 -66 -327 -113 -163 -65 -352 -160 -477 -239
-23 -14 -43 -24 -45 -23 -2 2 -7 -1 -10 -6 -3 -5 -33 -27 -66 -49 -62 -40
-227 -167 -304 -232 -59 -51 -277 -269 -326 -327 -22 -26 -45 -53 -50 -59
-112 -125 -332 -435 -408 -576 -22 -41 -43 -77 -46 -80 -15 -13 -160 -328
-177 -385 -8 -27 -58 -161 -61 -164 -2 -3 -594 -5 -1316 -5 l-1312 -1 -44 -23
c-45 -24 -73 -52 -102 -106 -51 -94 -217 -439 -292 -606 -13 -30 -35 -77 -47
-105 -13 -27 -23 -56 -23 -62 0 -7 -3 -13 -7 -13 -5 0 -32 -62 -35 -80 0 -3
-5 -14 -11 -25 -6 -11 -12 -45 -13 -75 -2 -47 2 -60 26 -88 19 -23 43 -38 74
-45 32 -9 268 -12 832 -11 728 0 786 -1 772 -16 -8 -9 -15 -22 -15 -28 0 -7
-4 -12 -9 -12 -5 0 -18 -16 -29 -35 -12 -19 -52 -76 -91 -127 -131 -174 -328
-348 -491 -434 -30 -16 -58 -33 -61 -37 -3 -5 -9 -8 -13 -8 -3 1 -19 -5 -34
-12 -60 -30 -218 -84 -277 -94 -11 -2 -42 -7 -70 -13 -106 -20 -333 -29 -405
-16 -14 3 -45 8 -70 11 -262 31 -516 158 -705 351 -96 98 -95 97 -159 194 -45
68 -80 135 -130 251 -21 49 -64 221 -73 294 -8 65 -8 330 0 410 10 98 58 317
85 385 5 14 18 45 27 70 20 52 83 179 114 230 11 19 28 49 37 65 9 17 20 32
23 35 5 4 46 55 86 109 16 22 198 204 225 226 65 52 150 115 205 150 33 21 71
45 85 55 36 24 238 120 254 120 7 0 16 3 20 8 4 4 11 7 14 7 4 1 30 8 57 18
64 21 175 47 240 55 69 8 279 7 340 -2 90 -13 196 -36 210 -46 6 -4 24 -10 40
-14 43 -11 212 -85 270 -120 96 -57 128 -86 338 -304 48 -50 74 -63 114 -56
32 6 311 77 389 100 28 8 60 16 70 19 45 10 150 37 164 42 8 3 24 8 35 10 10
2 62 15 115 30 52 14 102 27 110 28 8 2 15 4 15 6 0 1 9 3 20 5 11 2 63 15
115 29 105 29 126 34 155 40 108 24 283 77 303 92 14 10 27 29 29 42 3 24 -79
201 -164 352 -50 90 -152 242 -165 247 -4 2 -8 8 -8 14 0 5 -6 15 -12 22 -7 7
-26 29 -41 49 -94 120 -256 280 -382 380 -51 40 -244 177 -249 177 -3 0 -30
16 -61 35 -66 43 -225 123 -315 160 -36 14 -79 33 -97 41 -17 8 -37 14 -45 14
-8 0 -18 3 -22 8 -4 4 -11 7 -14 8 -16 2 -68 17 -77 23 -5 3 -19 7 -30 9 -25
4 -36 7 -55 15 -8 3 -26 8 -40 10 -14 3 -36 8 -50 11 -57 13 -111 24 -150 30
-72 12 -111 18 -156 22 -56 6 -520 15 -525 10z m5986 -1550 c17 -3 46 -9 65
-13 19 -3 37 -7 40 -7 23 -5 109 -29 125 -36 112 -44 205 -85 205 -91 0 -4 11
-10 25 -13 14 -4 25 -11 25 -16 0 -6 6 -10 13 -10 8 0 24 -9 37 -20 13 -11 26
-20 29 -20 3 0 22 -14 41 -30 19 -16 58 -49 85 -72 47 -40 134 -139 202 -234
75 -102 177 -349 199 -484 3 -14 7 -31 10 -39 16 -47 24 -305 11 -401 -3 -30
-9 -71 -11 -90 -13 -100 -77 -315 -128 -430 -16 -36 -30 -67 -30 -70 0 -3 -8
-16 -17 -30 -9 -14 -23 -38 -31 -55 -8 -16 -18 -34 -23 -40 -4 -5 -35 -50 -70
-99 -54 -78 -233 -271 -292 -316 -11 -8 -47 -36 -80 -61 -89 -68 -233 -159
-325 -205 -59 -29 -142 -66 -153 -68 -7 -2 -25 -9 -42 -15 -16 -7 -34 -14 -40
-15 -5 -2 -17 -6 -25 -9 -19 -8 -125 -34 -165 -41 -16 -3 -41 -8 -55 -11 -57
-11 -276 -22 -300 -15 -3 1 -25 3 -50 5 -79 7 -177 24 -225 39 -5 1 -30 9 -55
16 -58 17 -52 16 -75 24 -40 16 -50 19 -61 21 -45 10 -263 134 -332 189 -110
88 -320 341 -337 406 -1 3 -18 40 -38 83 -30 63 -61 148 -73 200 -1 4 -2 8 -4
10 -1 1 -3 11 -5 22 -2 11 -10 56 -18 100 -14 76 -17 356 -4 425 20 107 86
342 106 375 3 6 6 17 8 25 1 8 6 23 12 35 5 11 33 70 62 130 28 61 55 112 58
115 4 3 18 23 31 45 69 116 226 295 345 394 98 81 366 241 404 241 6 0 11 4
11 8 0 5 6 9 13 10 6 1 71 22 142 47 127 44 259 77 360 90 28 4 52 9 54 11 6
5 312 -3 346 -10z"/>
<path d="M1485 9759 c-17 -5 -44 -27 -62 -52 -18 -24 -41 -53 -50 -64 -10 -12
-25 -31 -33 -43 -8 -12 -27 -36 -42 -54 -15 -17 -28 -41 -28 -53 l0 -22 578
-1 c317 0 977 -2 1465 -3 744 -3 893 -1 917 11 16 8 48 43 72 80 23 37 48 73
55 80 7 7 13 19 13 26 0 7 9 21 19 30 24 22 32 52 17 65 -15 12 -2879 12
-2921 0z"/>
<path d="M309 9029 c-52 -8 -61 -16 -148 -129 -44 -58 -87 -112 -95 -120 -9
-10 -11 -21 -6 -30 7 -13 97 -15 702 -13 381 1 695 3 698 4 3 1 10 0 15 -1 6
-1 165 -1 355 -1 190 1 732 3 1205 5 473 1 867 6 876 10 9 4 21 17 27 29 11
22 53 142 56 162 1 6 5 16 10 23 4 7 5 24 2 38 -5 19 -13 24 -39 25 -208 4
-3633 3 -3658 -2z"/>
<path d="M2175 8292 c-35 -7 -64 -43 -126 -156 -53 -95 -58 -111 -46 -123 12
-13 144 -15 900 -18 l886 -2 18 21 c10 12 19 30 19 41 0 11 4 61 8 110 11 146
112 130 -831 130 -444 1 -817 -1 -828 -3z"/>
</g>
</svg>
